<?xml version="1.0" encoding="UTF-8"?>
<svg version="1.1" xmlns="http://www.w3.org/2000/svg" width="512" height="512">
<path d="M0 0 C9.89095151 7.49731374 19.34288696 16.44643416 25.80859375 27.12890625 C26.48921875 26.71640625 27.16984375 26.30390625 27.87109375 25.87890625 C59.69019885 6.92284364 93.37445133 -1.86105069 130.12915039 6.65332031 C149.2272924 11.49926455 165.78500181 20.4423175 180.80859375 33.12890625 C181.62070312 33.7940625 182.4328125 34.45921875 183.26953125 35.14453125 C202.83967973 51.81311198 214.645299 75.08197266 220.73046875 99.68359375 C220.91424072 100.42464355 221.0980127 101.16569336 221.28735352 101.92919922 C221.63377301 103.39113818 221.95482417 104.85933003 222.24975586 106.33251953 C223.21183782 110.88619842 224.32126126 113.26127851 227.87109375 116.25390625 C243.24688599 130.61618164 251.52624047 152.74892173 254.80859375 173.12890625 C255.68 173.33644531 256.55140625 173.54398438 257.44921875 173.7578125 C273.93210574 178.02124323 287.5037682 186.51611821 296.34375 201.4296875 C304.42450003 216.31981623 306.94914187 233.79583944 302.18359375 250.31640625 C301.44953098 252.27645579 300.65962783 254.21673906 299.80859375 256.12890625 C299.39609375 257.06605469 298.98359375 258.00320313 298.55859375 258.96875 C290.79757352 274.68922565 277.44759327 284.29799344 261.25 290.03515625 C259.10937711 290.75648939 256.96486515 291.45602723 254.80859375 292.12890625 C255.21851563 292.89074219 255.6284375 293.65257812 256.05078125 294.4375 C256.58960938 295.47003906 257.1284375 296.50257813 257.68359375 297.56640625 C258.21726562 298.57574219 258.7509375 299.58507812 259.30078125 300.625 C262.45202309 307.94796356 263.17452496 315.08998126 263.12109375 323.00390625 C263.1154541 323.88304687 263.10981445 324.7621875 263.10400391 325.66796875 C262.80584796 341.63259621 256.11136323 355.82613677 244.80859375 367.12890625 C234.217915 375.96134002 221.8096515 382.23914293 207.82047081 382.26312733 C206.61204439 382.26758517 205.40361796 382.27204301 204.15857255 382.27663594 C202.8209962 382.27654666 201.48341984 382.27635682 200.14584351 382.27607727 C198.72218591 382.27937797 197.29852924 382.28310398 195.87487376 382.28721875 C191.96246129 382.29722328 188.05006416 382.30095304 184.13764071 382.30360806 C179.9179766 382.30751566 175.69832459 382.31709363 171.47866821 382.32582092 C161.28854863 382.34557162 151.09842808 382.35564941 140.90829414 382.36454871 C136.10804774 382.36893358 131.30780244 382.37429984 126.50755692 382.37953758 C110.54819912 382.39654786 94.58884201 382.41104199 78.62947655 382.41828632 C74.48914972 382.42019617 70.3488229 382.42211651 66.20849609 382.42407227 C65.17945631 382.42455601 64.15041652 382.42503975 63.0901937 382.42553815 C46.4207367 382.43383833 29.75135146 382.45917595 13.08192579 382.49165294 C-4.03684491 382.5247332 -21.15557916 382.54273593 -38.274382 382.54593056 C-47.88410416 382.54809468 -57.49372164 382.55682899 -67.10341263 382.58239174 C-75.28737822 382.60411185 -83.4712137 382.61214267 -91.65520485 382.60242496 C-95.82875324 382.59788417 -100.00203325 382.59975353 -104.17554474 382.6191864 C-108.00151465 382.63684676 -111.82702095 382.63579743 -115.65299599 382.62028911 C-117.68165987 382.6167998 -119.71032877 382.63291777 -121.73892462 382.64989358 C-133.59063055 382.56681175 -142.84527539 379.43168151 -152.19140625 372.12890625 C-152.80757812 371.65066406 -153.42375 371.17242187 -154.05859375 370.6796875 C-160.50049858 364.9964959 -165.42545873 355.55212372 -167.19140625 347.12890625 C-168.1312544 331.72155957 -166.53328466 319.31075076 -156.19140625 307.12890625 C-149.46450044 299.96845766 -141.13315813 294.77728137 -131.19140625 294.12890625 C-131.19140625 293.13890625 -131.19140625 292.14890625 -131.19140625 291.12890625 C-132.17238281 291.1753125 -133.15335937 291.22171875 -134.1640625 291.26953125 C-153.91014426 291.91852144 -171.61628743 285.4206535 -186.21484375 272.08203125 C-200.30066674 258.5098947 -208.09874189 240.70521419 -208.6640625 221.27539062 C-208.84558719 200.38708534 -203.23884229 182.87501805 -188.69921875 167.4921875 C-184.70476637 163.43254376 -180.69111262 159.62778825 -176.19140625 156.12890625 C-176.62710938 155.690625 -177.0628125 155.25234375 -177.51171875 154.80078125 C-187.33936737 144.33497363 -192.01011084 131.36783418 -192.56640625 117.06640625 C-191.98031883 102.14559741 -186.18837478 89.28803728 -175.890625 78.60546875 C-168.28300588 71.62539563 -157.84990529 65.12890625 -147.19140625 65.12890625 C-147.11664063 64.37609375 -147.041875 63.62328125 -146.96484375 62.84765625 C-144.87925794 45.99939443 -137.5503246 26.35039767 -124.19140625 15.12890625 C-121.06031577 14.08520942 -119.3925146 13.62317642 -116.3359375 14.91015625 C-113.96057077 15.39667271 -113.96057077 15.39667271 -111.68359375 13.2578125 C-110.81992188 12.41089844 -109.95625 11.56398438 -109.06640625 10.69140625 C-104.37155892 6.12890625 -104.37155892 6.12890625 -102.19140625 6.12890625 C-102.27390625 4.89140625 -102.35640625 3.65390625 -102.44140625 2.37890625 C-102.64322695 -0.64840423 -102.42858612 -1.57868021 -100.48046875 -3.98046875 C-73.87807451 -25.95241212 -26.02255297 -18.21233123 0 0 Z " fill="#020201" transform="translate(208.19140625,95.87109375)"/>
<path d="M0 0 C2.40049103 1.89360001 4.7203691 3.8497781 7.02734375 5.85546875 C7.63578125 6.33242187 8.24421875 6.809375 8.87109375 7.30078125 C28.8123404 23.16313654 40.81720873 50.1081732 44.02734375 74.85546875 C46.47171834 105.29051279 38.55059221 133.22986681 19.02734375 156.85546875 C18.02069151 158.18378688 17.01874876 159.51573225 16.02734375 160.85546875 C13.02604615 159.48458781 10.73062803 157.85172066 8.21484375 155.73046875 C5.22393285 153.44822517 4.08180234 152.86350362 0.21484375 152.29296875 C-2.87386166 152.64947975 -2.87386166 152.64947975 -4.91015625 153.98046875 C-6.53089856 156.84060224 -6.49008238 158.62155544 -5.97265625 161.85546875 C-4.36188352 163.84208845 -2.91328968 165.22812143 -0.97265625 166.85546875 C18.72227095 184.07995212 32.37418965 203.59398689 34.46484375 230.23046875 C34.50480469 231.02195312 34.54476562 231.8134375 34.5859375 232.62890625 C35.16988452 235.57447973 35.79306387 236.81219093 38.02734375 238.85546875 C40.75275164 239.48395721 43.26762374 239.90875603 46.02734375 240.23046875 C56.99687803 241.83089419 66.84846477 246.20010592 73.8359375 255.1796875 C82.01247492 266.55204412 85.34641665 276.75787714 84.02734375 290.85546875 C81.5216109 302.45872029 75.33147702 312.45268265 66.02734375 319.85546875 C54.01706445 327.24514946 42.87017608 328.15080342 29.13452148 328.08251953 C27.53715522 328.0819546 25.93978845 328.08227358 24.34242249 328.08340454 C20.02899732 328.08397586 15.71568451 328.0722575 11.40228534 328.05825663 C6.88595834 328.04571226 2.36962847 328.04457585 -2.14671326 328.04220581 C-10.68876955 328.0360019 -19.23077435 328.01960588 -27.77280802 327.99950683 C-37.50196585 327.97711386 -47.23112621 327.96614587 -56.96030343 327.95611596 C-76.96444972 327.93523865 -96.96854973 327.90008393 -116.97265625 327.85546875 C-116.5632782 327.31889145 -116.15390015 326.78231415 -115.7321167 326.22947693 C-115.19371155 325.51880569 -114.6553064 324.80813446 -114.10058594 324.07592773 C-113.56745789 323.37435043 -113.03432983 322.67277313 -112.48504639 321.94993591 C-110.39118939 319.05021142 -108.82255897 316.12144368 -107.22265625 312.91796875 C-106.6503125 311.79519531 -106.07796875 310.67242187 -105.48828125 309.515625 C-100.515349 297.50624995 -99.60046436 282.01339826 -104.03515625 269.73046875 C-107.6128467 261.84536062 -112.45278462 254.59916518 -118.97265625 248.85546875 C-119.58367187 248.30246094 -120.1946875 247.74945313 -120.82421875 247.1796875 C-127.46010505 241.54521677 -135.09616091 238.16914133 -143.59375 236.26953125 C-147.37626604 235.389283 -149.33622271 234.74915229 -151.64453125 231.5078125 C-152.6598044 229.60548369 -153.62993453 227.67840777 -154.5546875 225.73046875 C-156.53780184 221.70960883 -159.1650945 218.33007532 -161.97265625 214.85546875 C-156.39553022 212.79714199 -150.99830472 212.16073157 -145.1171875 211.515625 C-141.31108063 210.7184138 -141.31108063 210.7184138 -138.97265625 207.85546875 C-137.66403923 205.34918267 -136.4269167 202.84789803 -135.22265625 200.29296875 C-132.00669701 193.68855521 -128.54533887 187.63737188 -123.97265625 181.85546875 C-123.39257812 181.11167969 -122.8125 180.36789062 -122.21484375 179.6015625 C-111.22563801 166.38232965 -94.73398582 155.91604586 -77.97265625 151.85546875 C-77.19277344 151.65308594 -76.41289062 151.45070313 -75.609375 151.2421875 C-61.20442092 148.1777472 -45.01804541 149.09667167 -30.484375 151.02734375 C-27.85193482 151.11425959 -27.85193482 151.11425959 -26.109375 149.09765625 C-24.40654141 145.73880236 -25.04822232 143.42114249 -25.97265625 139.85546875 C-34.01372525 134.49475608 -46.35774057 135.47070414 -55.72265625 135.48046875 C-56.93969238 135.47845459 -58.15672852 135.47644043 -59.41064453 135.47436523 C-67.93892768 135.57000424 -75.51000313 136.59529629 -83.65234375 139.078125 C-87.26714317 139.92441333 -89.38404221 139.66397073 -92.97265625 138.85546875 C-94.04644531 138.778125 -95.12023437 138.70078125 -96.2265625 138.62109375 C-100.27805403 137.98969247 -102.64370222 137.30220651 -105.97265625 134.85546875 C-108.72309677 129.15929823 -109.34497472 122.59367463 -110.43359375 116.41943359 C-111.61688152 110.79131395 -114.26783324 105.89847635 -116.97265625 100.85546875 C-117.44574219 99.90542969 -117.91882813 98.95539063 -118.40625 97.9765625 C-121.85651919 91.25368025 -126.08683995 85.59726468 -130.97265625 79.85546875 C-131.50375 79.17871094 -132.03484375 78.50195312 -132.58203125 77.8046875 C-141.18355727 67.18052541 -153.09345555 60.23141156 -164.97265625 53.85546875 C-164.48355985 48.0092383 -162.77521895 43.78805773 -159.97265625 38.66796875 C-159.57256348 37.92619385 -159.1724707 37.18441895 -158.76025391 36.42016602 C-155.07013167 29.74056853 -150.81825846 23.75992478 -145.97265625 17.85546875 C-145.4003125 17.13101563 -144.82796875 16.4065625 -144.23828125 15.66015625 C-109.31740835 -26.74376085 -43.34752258 -31.27173442 0 0 Z " fill="#EFF4F6" transform="translate(371.97265625,135.14453125)"/>
<path d="M0 0 C1.02738281 0.40734375 2.05476562 0.8146875 3.11328125 1.234375 C5.81349933 2.38467537 8.40220842 3.6355448 11 5 C11.83789062 5.43957031 12.67578125 5.87914062 13.5390625 6.33203125 C20.16773512 10.05681168 25.52566558 14.76015108 31 20 C31.68964844 20.61488281 32.37929687 21.22976562 33.08984375 21.86328125 C47.80102872 35.46748597 56.82133923 56.57047753 57.69140625 76.37109375 C58.01453437 79.12381809 58.36658048 80.75973732 60 83 C62.17208588 83.91160093 62.17208588 83.91160093 64.625 84.25 C65.44226563 84.39953125 66.25953125 84.5490625 67.1015625 84.703125 C67.72804688 84.80109375 68.35453125 84.8990625 69 85 C65.84287865 88.3414788 62.36194047 91.07533574 58.6875 93.8125 C48.60310936 101.48604506 40.53245925 110.00103342 34.69140625 121.41796875 C28.54786857 133.25333169 28.54786857 133.25333169 24.1171875 135.390625 C21.125 135.8125 21.125 135.8125 18.078125 135.86328125 C14.51456171 136.02156135 12.128161 137.07778474 8.875 138.5 C3.76695123 140.27957828 3.76695123 140.27957828 0.62109375 139.1328125 C-0.97891055 138.08780123 -2.54941885 136.99675071 -4.09375 135.87109375 C-7.78547776 133.4942959 -11.5532162 132.11519831 -15.6875 130.6875 C-16.40059326 130.43371582 -17.11368652 130.17993164 -17.84838867 129.91845703 C-32.25744682 124.98538495 -50.49691132 124.86444655 -64.8671875 129.9296875 C-67.15522418 130.81142498 -67.15522418 130.81142498 -68 133 C-68.48992475 137.61858521 -68.48992475 137.61858521 -66.79296875 141.73828125 C-64.34591187 143.46028424 -62.99015194 143.15502854 -60.0625 142.75 C-59.20785156 142.64171875 -58.35320312 142.5334375 -57.47265625 142.421875 C-55.08369663 142.05645041 -55.08369663 142.05645041 -53.12573242 141.48413086 C-49.22113421 140.59486725 -45.23773411 140.81540651 -41.25 140.8125 C-40.38117188 140.80025391 -39.51234375 140.78800781 -38.6171875 140.77539062 C-22.30123718 140.73864299 -8.12609697 148.15730949 3.625 159.125 C9.53862127 165.237839 13.92790554 172.59811406 17.5390625 180.26953125 C18.8540557 183.24355626 18.8540557 183.24355626 22 185 C23.97123511 185.30632143 25.95286711 185.54792829 27.9375 185.75 C39.50689838 187.43586339 48.85685239 192.68713891 56 202 C62.71020665 211.96111422 63.42108961 222.37315018 62 234 C59.9111887 243.76000133 53.26225572 252.05780728 45.1796875 257.71875 C37.88103665 262.00899638 30.48887258 264.10457394 22.05064392 264.16062927 C20.85788849 264.1706749 19.66513306 264.18072052 18.43623352 264.19107056 C17.13590683 264.19690155 15.83558014 264.20273254 14.49584961 264.20874023 C13.10573089 264.21828647 11.7156145 264.22817796 10.32550049 264.23838806 C5.76780997 264.2696905 1.21010169 264.29003365 -3.34765625 264.30859375 C-4.12492215 264.31189107 -4.90218805 264.31518839 -5.70300746 264.31858563 C-13.04317661 264.34936763 -20.38335011 264.37605515 -27.7235651 264.39300442 C-37.08624282 264.41488315 -46.44834517 264.45680792 -55.81079298 264.52644199 C-62.40805092 264.57382907 -69.00515445 264.5979576 -75.60257715 264.6052013 C-79.53567969 264.61013614 -83.4681327 264.62500746 -87.40104866 264.6649456 C-91.10724234 264.70208645 -94.81242293 264.71013358 -98.51876831 264.69693947 C-100.50845957 264.69701825 -102.49808284 264.72669209 -104.48753357 264.75762939 C-114.01909724 264.6814304 -121.96752382 262.45260708 -129.23448277 256.02298641 C-134.84760246 250.18741329 -138.16538549 243.62942113 -138.4375 235.5 C-138.05267544 226.59938035 -135.19688551 219.45508907 -129 213 C-123.36410588 207.95676935 -118.29610304 206.28026174 -110.796875 205.71484375 C-106.93590051 204.72803044 -105.41915428 203.13117487 -103 200 C-102.15519499 196.84795959 -102.15519499 196.84795959 -102 193.4375 C-100.55721533 180.75687875 -94.69692522 169.10464932 -86.0625 159.6875 C-83.76010757 157.13119798 -83.76010757 157.13119798 -83.5 153.8125 C-83.82814639 151.06057607 -83.82814639 151.06057607 -85.0625 149.125 C-88.30724958 147.24095186 -90.31547364 147.38591227 -94 148 C-101.37011679 152.74149726 -106.87444643 162.99025476 -110.21484375 170.86328125 C-112 173 -112 173 -115.73828125 173.62890625 C-117.26314472 173.63949791 -118.78851474 173.61531761 -120.3125 173.5625 C-121.11703613 173.54517822 -121.92157227 173.52785645 -122.75048828 173.51000977 C-137.13726097 172.94987487 -150.65696726 167.56490036 -161.34765625 157.7890625 C-166.96767216 151.70403345 -171.91513375 144.71216562 -175 137 C-175.556875 135.63875 -175.556875 135.63875 -176.125 134.25 C-181.51546005 119.27649986 -180.11305675 104.50049238 -173.71484375 90.109375 C-166.71776245 76.15419336 -154.68566259 65.34505197 -140 60 C-139.05898437 59.64550781 -138.11796875 59.29101562 -137.1484375 58.92578125 C-132.80709762 57.64923342 -128.62120832 57.60572139 -124.12109375 57.44140625 C-120.64903069 56.95036354 -118.76480811 56.13688514 -116 54 C-114.77708748 52.14739073 -114.77708748 52.14739073 -114.0625 50 C-104.81007739 27.255997 -87.29024082 10.06483162 -64.765625 0.5078125 C-63.51213665 0.00093395 -62.25698694 -0.50186073 -61 -1 C-59.92234375 -1.43570313 -58.8446875 -1.87140625 -57.734375 -2.3203125 C-39.71020866 -8.31439572 -17.48453303 -7.19137856 0 0 Z " fill="#C3E0E7" transform="translate(194,199)"/>
<path d="M0 0 C2.40049103 1.89360001 4.7203691 3.8497781 7.02734375 5.85546875 C7.63578125 6.33242187 8.24421875 6.809375 8.87109375 7.30078125 C28.8123404 23.16313654 40.81720873 50.1081732 44.02734375 74.85546875 C46.47171834 105.29051279 38.55059221 133.22986681 19.02734375 156.85546875 C18.02069151 158.18378688 17.01874876 159.51573225 16.02734375 160.85546875 C13.02604615 159.48458781 10.73062803 157.85172066 8.21484375 155.73046875 C5.2334769 153.45419239 4.13556873 152.86989875 0.27734375 152.35546875 C-2.87561402 152.61017974 -2.87561402 152.61017974 -4.8046875 154.05859375 C-6.97265625 154.85546875 -6.97265625 154.85546875 -9.8125 153.80859375 C-10.83472656 153.2465625 -11.85695313 152.68453125 -12.91015625 152.10546875 C-17.23702188 149.74533674 -17.23702188 149.74533674 -21.78125 147.87109375 C-22.50441406 147.5359375 -23.22757813 147.20078125 -23.97265625 146.85546875 C-24.71524974 144.5451779 -25.38409425 142.20971675 -25.97265625 139.85546875 C-34.01372525 134.49475608 -46.35774057 135.47070414 -55.72265625 135.48046875 C-56.93969238 135.47845459 -58.15672852 135.47644043 -59.41064453 135.47436523 C-67.93892768 135.57000424 -75.51000313 136.59529629 -83.65234375 139.078125 C-87.26714317 139.92441333 -89.38404221 139.66397073 -92.97265625 138.85546875 C-94.04644531 138.778125 -95.12023437 138.70078125 -96.2265625 138.62109375 C-100.27805403 137.98969247 -102.64370222 137.30220651 -105.97265625 134.85546875 C-108.72309677 129.15929823 -109.34497472 122.59367463 -110.43359375 116.41943359 C-111.61688152 110.79131395 -114.26783324 105.89847635 -116.97265625 100.85546875 C-117.44574219 99.90542969 -117.91882813 98.95539063 -118.40625 97.9765625 C-121.85651919 91.25368025 -126.08683995 85.59726468 -130.97265625 79.85546875 C-131.50375 79.17871094 -132.03484375 78.50195312 -132.58203125 77.8046875 C-141.18355727 67.18052541 -153.09345555 60.23141156 -164.97265625 53.85546875 C-164.48355985 48.0092383 -162.77521895 43.78805773 -159.97265625 38.66796875 C-159.57256348 37.92619385 -159.1724707 37.18441895 -158.76025391 36.42016602 C-155.07013167 29.74056853 -150.81825846 23.75992478 -145.97265625 17.85546875 C-145.4003125 17.13101563 -144.82796875 16.4065625 -144.23828125 15.66015625 C-109.31740835 -26.74376085 -43.34752258 -31.27173442 0 0 Z " fill="#F9AF3B" transform="translate(371.97265625,135.14453125)"/>
<path d="M0 0 C18.14784359 0 35.83559443 6.50891499 48.97998047 19.17626953 C55.01077954 25.25312122 59.31791939 30.72752058 62.5 38.6875 C64.2754578 42.42208366 65.04289038 43.95908838 68.93359375 45.49609375 C71.32631625 45.92555676 73.72869059 46.30361243 76.13671875 46.63671875 C88.178232 48.77770723 97.67107304 56.05086282 104.7109375 65.7578125 C111.97964762 77.06863459 114.26240171 90.25613462 111.48193359 103.47900391 C110.36155346 107.59482459 108.99432711 111.56386017 106.9375 115.3125 C103.78460895 116.36346368 101.54006655 116.45117062 98.22865295 116.47312927 C97.03864685 116.4831749 95.84864075 116.49322052 94.62257385 116.50357056 C92.66129799 116.51231705 92.66129799 116.51231705 90.66040039 116.52124023 C89.27057663 116.53078057 87.88075524 116.54067181 86.49093628 116.55088806 C81.92237158 116.58226996 77.35378875 116.60254811 72.78515625 116.62109375 C72.00670247 116.62439107 71.22824869 116.62768839 70.4262054 116.63108563 C63.07688619 116.66188051 55.72756277 116.68857548 48.37819767 116.70550442 C38.9963315 116.72737148 29.61504052 116.76925215 20.23340422 116.83894199 C13.62769409 116.88633217 7.02213823 116.91045837 0.41626352 116.9177013 C-3.52357515 116.92263744 -7.46276561 116.93752018 -11.40241814 116.9774456 C-15.11679243 117.01458966 -18.83015587 117.02263253 -22.54468155 117.00943947 C-24.53916255 117.00951826 -26.5335757 117.03919318 -28.52781677 117.07012939 C-38.06933105 116.99403225 -46.02187037 114.77256851 -53.29685879 108.33548641 C-58.91017122 102.50012268 -62.22788773 95.94185413 -62.5 87.8125 C-62.11517544 78.91188035 -59.25938551 71.76758907 -53.0625 65.3125 C-47.42660588 60.26926935 -42.35860304 58.59276174 -34.859375 58.02734375 C-30.99840051 57.04053044 -29.48165428 55.44367487 -27.0625 52.3125 C-26.21769499 49.16045959 -26.21769499 49.16045959 -26.0625 45.75 C-24.63347614 33.19032236 -18.87549266 21.32169342 -10.125 12.125 C-7.28947255 8.25837166 -7.74350262 6.01771134 -8.0625 1.3125 C-6.1250099 -0.6249901 -2.63140446 0.02447818 0 0 Z " fill="#EFF4F6" transform="translate(118.0625,346.6875)"/>
<path d="M0 0 C9.07850367 6.81209708 18.21158947 15.01255397 23.75390625 25.06640625 C23.82671695 29.20043579 20.51227252 31.8146497 17.87890625 34.69140625 C7.42855581 46.61643066 -0.02727286 60.13661484 -5.24609375 75.06640625 C-8.17578125 74.578125 -11.10546875 74.08984375 -14.03515625 73.6015625 C-15.09476563 73.42496094 -16.154375 73.24835938 -17.24609375 73.06640625 C-18.11878906 72.88335937 -18.99148437 72.7003125 -19.890625 72.51171875 C-47.82347378 68.80468178 -74.51829204 74.88757651 -97.37109375 91.25390625 C-110.41982 101.51399343 -122.68028886 113.92379259 -128.37109375 129.81640625 C-129.44140625 132.1640625 -129.44140625 132.1640625 -131.24609375 134.06640625 C-137.72178985 136.36933427 -145.53630688 138.2990642 -152.24609375 136.06640625 C-159.90367963 130.61524342 -164.11355134 121.98174873 -166.24609375 113.06640625 C-167.37716805 100.16426805 -165.67540152 90.3086362 -157.296875 80.171875 C-149.72666421 72.39979192 -141.06140435 68.08842612 -130.32421875 67.27734375 C-128.21983622 67.06374101 -126.2831471 66.62613713 -124.24609375 66.06640625 C-124.0759375 64.99003906 -123.90578125 63.91367188 -123.73046875 62.8046875 C-121.11677953 46.8153839 -117.31015043 31.96808732 -107.37109375 18.81640625 C-104.02043742 14.24331266 -103.56029586 11.65076054 -104.24609375 6.06640625 C-104.24609375 3.06640625 -104.24609375 3.06640625 -102.1640625 0.83984375 C-101.26300781 0.04835938 -100.36195312 -0.743125 -99.43359375 -1.55859375 C-98.54027344 -2.35523437 -97.64695312 -3.151875 -96.7265625 -3.97265625 C-94.24609375 -5.93359375 -94.24609375 -5.93359375 -91.24609375 -6.93359375 C-90.83617188 -6.43730469 -90.42625 -5.94101563 -90.00390625 -5.4296875 C-88.3800829 -3.7644089 -88.3800829 -3.7644089 -86.30078125 -3.71875 C-82.24854977 -4.23435651 -78.81947067 -4.98095931 -75.12109375 -6.74609375 C-51.36880043 -17.94536159 -21.62821889 -14.57622321 0 0 Z " fill="#EEF3F5" transform="translate(198.24609375,107.93359375)"/>
<path d="M0 0 C2.40049103 1.89360001 4.7203691 3.8497781 7.02734375 5.85546875 C7.63578125 6.33242187 8.24421875 6.809375 8.87109375 7.30078125 C28.77830797 23.13606529 40.87401666 50.12653622 44.02734375 74.85546875 C44.95158238 87.39140212 44.3869756 99.51550852 42.02734375 111.85546875 C13.11421593 116.49954628 -17.40724633 108.39465924 -41.06811523 91.37084961 C-66.57662425 72.09766698 -82.77260683 45.34667712 -87.97265625 13.85546875 C-88.10542969 13.06914062 -88.23820312 12.2828125 -88.375 11.47265625 C-89.05709745 6.55781709 -89.06906703 1.62287241 -89.09765625 -3.33203125 C-89.10240967 -4.00999756 -89.10716309 -4.68796387 -89.11206055 -5.38647461 C-89.09875174 -9.40129917 -88.92057613 -13.23509772 -87.97265625 -17.14453125 C-64.13130927 -31.44933944 -20.08659696 -14.49085641 0 0 Z " fill="#F5CA42" transform="translate(371.97265625,135.14453125)"/>
<path d="M0 0 C4.62535356 0.56169961 8.16781851 1.82644803 12.3125 3.9375 C13.36050781 4.46214844 14.40851563 4.98679687 15.48828125 5.52734375 C18 7 18 7 19 9 C18.9175 9.928125 18.835 10.85625 18.75 11.8125 C19.02416259 15.30807306 19.69301774 16.26407506 22.2578125 18.5390625 C22.83273437 19.02117187 23.40765625 19.50328125 24 20 C43.6949272 37.22448337 57.3468459 56.73851814 59.4375 83.375 C59.47746094 84.16648437 59.51742187 84.95796875 59.55859375 85.7734375 C60.14254077 88.71901098 60.76572012 89.95672218 63 92 C65.72540789 92.62848846 68.24027999 93.05328728 71 93.375 C81.96953428 94.97542544 91.82112102 99.34463717 98.80859375 108.32421875 C106.98513117 119.69657537 110.3190729 129.90240839 109 144 C106.49426715 155.60325154 100.30413327 165.5972139 91 173 C78.9897207 180.38968071 67.84283233 181.29533467 54.10717773 181.22705078 C52.50981147 181.22648585 50.9124447 181.22680483 49.31507874 181.22793579 C45.00165357 181.22850711 40.68834076 181.21678875 36.37494159 181.20278788 C31.85861459 181.19024351 27.34228472 181.1891071 22.82594299 181.18673706 C14.2838867 181.18053315 5.7418819 181.16413713 -2.80015177 181.14403808 C-12.5293096 181.12164511 -22.25846996 181.11067712 -31.98764718 181.10064721 C-51.99179347 181.0797699 -71.99589348 181.04461518 -92 181 C-90 179 -90 179 -87.3332119 178.76952171 C-86.19203218 178.77873964 -85.05085247 178.78795757 -83.87509155 178.79745483 C-82.56814835 178.80311966 -81.26120514 178.80878448 -79.91465759 178.81462097 C-78.45791414 178.83114379 -77.00117286 178.84785865 -75.54443359 178.86474609 C-74.01707007 178.87516757 -72.48970028 178.88470366 -70.96232605 178.89341736 C-66.80751237 178.91964347 -62.65289516 178.95830837 -58.4982028 178.99914122 C-54.15938671 179.03968992 -49.82049494 179.06889003 -45.4815979 179.09927368 C-37.26154071 179.15857051 -29.04160342 179.2281316 -20.82165968 179.30134451 C-11.46513893 179.38418353 -2.10854219 179.45563463 7.24807858 179.52611041 C26.49883151 179.67136673 45.74944175 179.83098515 65 180 C65.16081055 178.75057617 65.32162109 177.50115234 65.48730469 176.21386719 C65.57776062 175.51106628 65.66821655 174.80826538 65.76141357 174.08416748 C67.55504022 158.41597383 64.31173772 145.12510182 55.1015625 132.37109375 C44.96676185 120.03225653 32.1625843 115.79020922 17 113 C16.91363281 112.175 16.82726562 111.35 16.73828125 110.5 C13.48397039 83.74896759 1.36758219 59.8316068 -20 43 C-40.20151766 28.08877015 -61.23166757 23.60361763 -86 23 C-74.94699053 11.144258 -56.97238342 4.17443996 -41 3 C-29.14003908 2.60027539 -17.28910832 2.60735092 -5.51171875 4.171875 C-2.83485075 4.2755775 -2.83485075 4.2755775 -1.14453125 2.015625 C-0.76683594 1.35046875 -0.38914062 0.6853125 0 0 Z " fill="#DBE7EB" transform="translate(347,282)"/>
<path d="M0 0 C3.69006427 3.25351649 5.84599632 6.957462 8 11.3125 C8.52327881 12.36993408 8.52327881 12.36993408 9.05712891 13.44873047 C14.0486935 23.9055799 16.23815425 34.80373989 17.5078125 46.26953125 C17.7566515 49.13695268 17.7566515 49.13695268 20 51 C21.94750138 51.34008606 23.90969199 51.59805992 25.875 51.8125 C38.25460782 53.60051392 49.15322797 58.60456283 57.03515625 68.57421875 C64.91854033 80.30723837 67.9976924 91.73608825 65.4921875 105.86328125 C62.4506917 117.10283182 55.97969576 127.16415937 46 133.3125 C36.2803925 138.74014121 27.25953073 141.37501182 16 140 C13.09798456 138.77853023 10.61863701 137.30840482 7.97265625 135.60546875 C5.0285027 134.01539371 2.34152099 133.31905217 -0.90917969 132.60449219 C-4.38862875 131.78195512 -6.8880959 130.85802333 -10 129 C-12.2406477 124.460983 -12.93012131 120.06953049 -13.64306641 115.09570312 C-16.08467773 100.76000435 -24.47800081 87.47491076 -33 76 C-31.37087118 72.26101583 -28.99715402 69.40650606 -26.4375 66.25 C-11.04655156 46.64085398 -4.28642807 24.22895866 0 0 Z " fill="#A2D3DB" transform="translate(431,232)"/>
<path d="M0 0 C1.02738281 0.40734375 2.05476563 0.8146875 3.11328125 1.234375 C5.81349933 2.38467537 8.40220842 3.6355448 11 5 C11.83789062 5.43957031 12.67578125 5.87914062 13.5390625 6.33203125 C20.16773512 10.05681168 25.52566558 14.76015108 31 20 C32.03447266 20.92232422 32.03447266 20.92232422 33.08984375 21.86328125 C47.80102872 35.46748597 56.82133923 56.57047753 57.69140625 76.37109375 C58.01453437 79.12381809 58.36658048 80.75973732 60 83 C62.17208588 83.91160093 62.17208588 83.91160093 64.625 84.25 C65.44226563 84.39953125 66.25953125 84.5490625 67.1015625 84.703125 C67.72804688 84.80109375 68.35453125 84.8990625 69 85 C65.84296351 88.34138899 62.3623515 91.07596482 58.6875 93.8125 C51.24377696 99.46064269 45.24111464 105.21773887 40 113 C39.03513672 112.49339844 39.03513672 112.49339844 38.05078125 111.9765625 C31.56968283 108.77761806 25.72955799 107.20347741 18.5546875 106.359375 C16 106 16 106 15 105 C14.86312286 103.46089264 14.76715995 101.91812705 14.6875 100.375 C12.59612041 76.50866815 0.05242434 53.58722841 -18 38 C-38.37971993 21.28977637 -60.92825571 15.28536238 -87 15 C-79.75748441 7.42478935 -70.69679285 2.79992275 -61 -1 C-60.00613281 -1.39574219 -59.01226562 -1.79148438 -57.98828125 -2.19921875 C-39.80839737 -8.21695035 -17.65214264 -7.26031629 0 0 Z " fill="#A3D4DB" transform="translate(194,199)"/>
<path d="M0 0 C1.80078125 1.29296875 1.80078125 1.29296875 3.80078125 3.29296875 C6.11417816 3.35267297 6.11417816 3.35267297 8.67578125 2.98046875 C9.53945312 2.88121094 10.403125 2.78195312 11.29296875 2.6796875 C13.71334195 2.3552125 13.71334195 2.3552125 15.67724609 1.77929688 C19.58007883 0.88547728 23.56392899 1.10837462 27.55078125 1.10546875 C28.85402344 1.08709961 28.85402344 1.08709961 30.18359375 1.06835938 C46.49954407 1.03161174 60.67468428 8.45027824 72.42578125 19.41796875 C78.33940252 25.53080775 82.72868679 32.89108281 86.33984375 40.5625 C87.65483695 43.53652501 87.65483695 43.53652501 90.80078125 45.29296875 C92.77201636 45.59929018 94.75364836 45.84089704 96.73828125 46.04296875 C108.30767963 47.72883214 117.65763364 52.98010766 124.80078125 62.29296875 C131.5109879 72.25408297 132.22187086 82.66611893 130.80078125 94.29296875 C128.71181825 104.05367892 122.065505 112.33595148 113.9921875 118.0078125 C109.83719598 120.44451876 104.71053727 123.29296875 99.80078125 123.29296875 C100.17703199 120.96021417 100.59655328 118.76660382 101.53515625 116.58984375 C105.91610319 106.09210297 105.24846497 92.4131541 101.12109375 81.96484375 C95.55037129 70.69154741 87.3870602 62.31283568 75.83203125 57.265625 C72.41888943 56.17042872 69.16882432 55.83961969 65.61328125 55.41796875 C61.00169465 54.54076478 59.33825806 54.02279599 56.51953125 50.1953125 C55.1569156 47.61217577 53.9795717 44.95359022 52.77734375 42.29296875 C46.05252817 27.74455696 30.30242413 17.65773837 15.80078125 12.29296875 C6.24482784 9.49076477 -3.30353609 8.69489424 -13.19921875 8.29296875 C-11.951943 4.55114149 -10.69484978 4.00990784 -7.38671875 1.98046875 C-6.51402344 1.42746094 -5.64132813 0.87445313 -4.7421875 0.3046875 C-2.19921875 -0.70703125 -2.19921875 -0.70703125 0 0 Z " fill="#DBE7EB" transform="translate(125.19921875,338.70703125)"/>
<path d="M0 0 C9.07850367 6.81209708 18.21158947 15.01255397 23.75390625 25.06640625 C23.86302623 29.2969041 20.30079888 32.15812842 17.62890625 35.12890625 C12.67480303 40.78577644 8.56873899 46.56947267 4.75390625 53.06640625 C1.90685078 49.5603694 -0.780143 45.97033843 -3.43359375 42.31640625 C-17.36260676 23.84237439 -37.12655915 11.92533341 -60.18359375 8.31640625 C-61.53547628 8.20183993 -62.89057491 8.12368169 -64.24609375 8.06640625 C-65.30828125 8.01484375 -66.37046875 7.96328125 -67.46484375 7.91015625 C-77.83038937 7.64883997 -94.89908032 7.37598042 -103.05859375 14.69140625 C-103.64640625 15.37203125 -103.64640625 15.37203125 -104.24609375 16.06640625 C-104.24609375 3.06640625 -104.24609375 3.06640625 -102.1640625 0.83984375 C-100.81248047 -0.34738281 -100.81248047 -0.34738281 -99.43359375 -1.55859375 C-98.54027344 -2.35523437 -97.64695312 -3.151875 -96.7265625 -3.97265625 C-94.24609375 -5.93359375 -94.24609375 -5.93359375 -91.24609375 -6.93359375 C-90.83617188 -6.43730469 -90.42625 -5.94101563 -90.00390625 -5.4296875 C-88.3800829 -3.7644089 -88.3800829 -3.7644089 -86.30078125 -3.71875 C-82.24854977 -4.23435651 -78.81947067 -4.98095931 -75.12109375 -6.74609375 C-51.36880043 -17.94536159 -21.62821889 -14.57622321 0 0 Z " fill="#DBE7EB" transform="translate(198.24609375,107.93359375)"/>
<path d="M0 0 C0.66 0.99 1.32 1.98 2 3 C4.64251929 3.54875101 4.64251929 3.54875101 7.75 3.75 C21.06839273 5.5601241 32.53133747 12.78115821 40.8046875 23.29296875 C42.31801558 25.48014191 43.68698167 27.68776646 45 30 C45.38929688 30.680625 45.77859375 31.36125 46.1796875 32.0625 C50.05579963 39.30545405 51.33883279 46.37179995 51.25 54.5 C51.26160156 55.56154297 51.26160156 55.56154297 51.2734375 56.64453125 C51.25487843 61.72043696 50.3855165 66.11770376 49 71 C44.41224567 71.28631848 41.93970853 70.74417739 38.0625 68.3125 C34.76172428 66.33112776 31.84139245 64.85893514 28.09375 64.05078125 C23.95925786 63.13656187 20.6709542 62.19181515 17 60 C14.7593523 55.460983 14.06987869 51.06953049 13.35693359 46.09570312 C11.05499718 32.58009286 3.43679986 19.72619293 -4.8125 9.0234375 C-5.204375 8.35570312 -5.59625 7.68796875 -6 7 C-4.77065985 3.31197956 -3.06140622 2.27643027 0 0 Z " fill="#C2DFE6" transform="translate(404,301)"/>
<path d="M0 0 C13.4013968 4.34689053 25.0009877 12.10792901 35 22 C36.56430248 25.12860495 36.35627284 27.55602925 36 31 C33.52035793 33.91722597 32.07180076 34.90256357 28.25 35.25 C24.09215215 33.65082775 21.63605522 31.13948487 18.40625 28.125 C7.49761925 18.49140401 -7.4560454 13.49738694 -21.8125 12.625 C-25.17349458 12.34256348 -26.76210169 12.14384549 -29.6875 10.375 C-31.56472444 6.97811768 -31.61315246 4.81517087 -31 1 C-24.47507177 -7.20878067 -8.9089263 -2.35727112 0 0 Z " fill="#040404" transform="translate(337,300)"/>
<path d="M0 0 C4.81115981 3.95372539 7.66376843 8.96774586 10.75 14.3125 C11.24371094 15.12912109 11.73742187 15.94574219 12.24609375 16.78710938 C15.24629235 21.94498505 16.92789906 25.98940362 17 32 C14.60220738 35.48769835 13.17642926 36.77941951 9 37.5625 C5.10169797 36.83156837 3.87598918 35.784556 1 33 C-1.29236977 29.63521338 -3.27184583 26.11881393 -5.25 22.5625 C-5.79140625 21.62083984 -6.3328125 20.67917969 -6.890625 19.70898438 C-11.41498036 11.69521995 -11.41498036 11.69521995 -12 7 C-10.16366664 0.41980547 -6.5554476 -0.79117471 0 0 Z " fill="#000000" transform="translate(222,59)"/>
<path d="M0 0 C2.5 1.5625 2.5 1.5625 4 4 C4.5625 7.4375 4.5625 7.4375 4 11 C-0.16751589 16.15319392 -5.74084446 19.07245334 -11.4375 22.3125 C-12.36626953 22.86228516 -13.29503906 23.41207031 -14.25195312 23.97851562 C-22.97163422 28.97448949 -22.97163422 28.97448949 -28 28 C-31.32274404 25.54405875 -32.77618008 24.0743356 -33.625 20 C-32.67923944 15.4603493 -29.84727324 13.2338217 -26.04443359 10.69384766 C-23.84187638 9.36028571 -21.61768142 8.07735701 -19.375 6.8125 C-17.86163259 5.94461447 -16.3485983 5.07614776 -14.8359375 4.20703125 C-14.17126465 3.8303833 -13.5065918 3.45373535 -12.82177734 3.06567383 C-8.27937276 0.40853151 -5.33861335 -0.84859246 0 0 Z " fill="#000000" transform="translate(468,125)"/>
<path d="M0 0 C2.4375 1.5 2.4375 1.5 4 4 C5.11463014 11.87374732 1.82465507 16.75553365 -2.25 23.3125 C-2.83652344 24.30056641 -3.42304688 25.28863281 -4.02734375 26.30664062 C-9.00308683 34.51941207 -9.00308683 34.51941207 -13 37 C-15.9375 37.5 -15.9375 37.5 -19 37 C-21.875 34.875 -21.875 34.875 -24 32 C-24.54559407 27.15717113 -23.49010913 24.38023316 -21.04296875 20.234375 C-20.42486328 19.17992188 -19.80675781 18.12546875 -19.16992188 17.0390625 C-18.51572266 15.95367187 -17.86152344 14.86828125 -17.1875 13.75 C-16.54490234 12.64914063 -15.90230469 11.54828125 -15.24023438 10.4140625 C-8.53475424 -0.89839518 -8.53475424 -0.89839518 0 0 Z " fill="#000000" transform="translate(402,59)"/>
<path d="M0 0 C0.71969467 -0.00145523 1.43938934 -0.00291046 2.18089294 -0.00440979 C3.69802918 -0.00275385 5.21518274 0.00877349 6.73217773 0.02954102 C9.05459816 0.05854385 11.37474128 0.05013655 13.69726562 0.03710938 C15.17318817 0.04334585 16.64910353 0.05173609 18.125 0.0625 C19.16570396 0.05809654 19.16570396 0.05809654 20.22743225 0.05360413 C23.10315364 0.10993382 25.03442298 0.16283863 27.40600586 1.87475586 C28.91723361 4.12247444 29.30305469 5.7935469 29.49609375 8.49609375 C28.55993125 11.59263126 27.79186053 13.20032697 25.49609375 15.49609375 C20.17501987 17.34908643 14.17592704 16.72181033 8.62109375 16.74609375 C7.44933594 16.76671875 6.27757812 16.78734375 5.0703125 16.80859375 C-5.8200309 16.85803912 -5.8200309 16.85803912 -10.50390625 13.49609375 C-12.04977501 10.40435623 -11.79750146 7.90179823 -11.50390625 4.49609375 C-8.37052105 0.0592282 -5.08558159 -0.08258615 0 0 Z " fill="#000000" transform="translate(467.50390625,214.50390625)"/>
<path d="M0 0 C1.17369141 -0.02513672 1.17369141 -0.02513672 2.37109375 -0.05078125 C5.21538034 0.4207315 5.88011179 0.96708419 7.5625 3.3125 C7.87288354 5.85239379 8.00684424 8.14284636 7.99609375 10.68359375 C8.0013356 11.4023317 8.00657745 12.12106964 8.01197815 12.86158752 C8.01839606 14.38044952 8.01706425 15.89936123 8.00854492 17.41821289 C8.00004142 19.73869686 8.028783 22.05671286 8.06054688 24.37695312 C8.06215924 25.85416593 8.06158069 27.33138308 8.05859375 28.80859375 C8.07544472 29.84626137 8.07544472 29.84626137 8.09263611 30.90489197 C8.04448856 34.24459525 7.76475457 36.04043859 5.75024414 38.75024414 C2.54949088 41.03588415 0.39613931 40.86016276 -3.4375 40.3125 C-6.34467073 38.09386971 -7.27731643 36.79305071 -8.4375 33.3125 C-8.67272511 29.02468228 -8.62267915 24.73108064 -8.625 20.4375 C-8.63724609 19.25285156 -8.64949219 18.06820312 -8.66210938 16.84765625 C-8.66404297 15.70425781 -8.66597656 14.56085937 -8.66796875 13.3828125 C-8.67207764 12.33883301 -8.67618652 11.29485352 -8.68041992 10.21923828 C-8.17381091 4.15724142 -6.46787942 0.03186147 0 0 Z " fill="#000000" transform="translate(308.4375,34.6875)"/>
<path d="M0 0 C5.82853407 3.98046229 7.4988653 10.3331959 9 17 C9.21077355 19.86551661 8.94996968 21.20946407 8 24 C5.74582958 26.5881216 4.39479021 26.94242643 1 27.4375 C-2.7654619 26.88837014 -3.5878126 25.88497612 -6 23 C-8.67702605 17.14193991 -11.21071434 10.45714314 -10 4 C-6.99746894 0.65432253 -4.50513222 -1.01365475 0 0 Z " fill="#070707" transform="translate(383,341)"/>
</svg>
